<svg id="text_yoko" data-name="text yoko" xmlns="http://www.w3.org/2000/svg" width="500" height="50" viewBox="0 0 500 50">
  <path id="パス_225" data-name="パス 225" d="M0,24.679A25.1,25.1,0,0,1,3.523,12.056a22.041,22.041,0,0,1,9.559-9.1A28.962,28.962,0,0,1,26.008,0q12.373,0,19.4,7.3a24.842,24.842,0,0,1,7.037,17.913,24.042,24.042,0,0,1-7.023,17.331Q38.4,49.8,26.346,49.791a29.276,29.276,0,0,1-14.61-3.568,20.568,20.568,0,0,1-9.039-9.6A29.08,29.08,0,0,1,0,24.679Zm14.453-.385q0,11.075,2.884,15.964a9.462,9.462,0,0,0,8.67,4.9q5.982,0,9.023-4.48T38.065,25q0-10.218-2.853-15.311T26.134,4.628a9.628,9.628,0,0,0-8.779,4.716Q14.446,14.06,14.453,24.294Z" transform="translate(0 0.203)"/>
  <path id="パス_226" data-name="パス 226" d="M82.434,27.861V39.218q0,3.285,1.1,4.574c.741.864,2.246,1.3,4.532,1.3h.788v3.93H63.63V45.089h.93c2.364,0,3.877-.448,4.579-1.328s1.056-2.358,1.056-4.543V10.854q0-3.285-1.1-4.574t-4.531-1.3h-.93V1.054L82.434,1H86.65a69.842,69.842,0,0,1,9.142.423,16.026,16.026,0,0,1,5.69,2.035,11.711,11.711,0,0,1,4.405,4.4,11.858,11.858,0,0,1,1.576,6.012q0,8.559-9.457,11.7,2.53,1.627,7.88,10.217,4.145,6.61,5.911,7.969a6.173,6.173,0,0,0,3.869,1.368v3.93H100.961q-2-2.444-7.432-12.378a61.416,61.416,0,0,0-3.838-6.468,5.088,5.088,0,0,0-2.262-1.855,19.335,19.335,0,0,0-5-.5Zm0-4.307q5.84.071,7.88-.731a6.228,6.228,0,0,0,3.215-2.861,11.4,11.4,0,0,0,1.174-5.6q0-5.053-2.364-7T84.332,5.408h-1.9Z" transform="translate(-13.484 -0.008)"/>
  <path id="パス_227" data-name="パス 227" d="M139.885,35.855l-.9,2.358a11.819,11.819,0,0,0-.969,3.537,2.607,2.607,0,0,0,1.143,2.421,7.615,7.615,0,0,0,3.736.692v3.93H127.41v-3.93q4.421,0,7.432-7.71L149.256,0H153.3L168,37.128q2.175,5.5,3.94,6.634a6.387,6.387,0,0,0,3.389,1.116v3.93H152.053v-3.93c2.1,0,3.4-.212,3.94-.621a1.955,1.955,0,0,0,.788-1.572,5.906,5.906,0,0,0-.623-2.232l-.449-1.092-1.348-3.505Zm1.489-4.063h11.372l-5.84-14.32Z" transform="translate(-27.328 0.202)"/>
  <path id="パス_228" data-name="パス 228" d="M196.009,14.728V36.734q0,5.3,1.884,6.822a7.429,7.429,0,0,0,4.823,1.525v3.93H185.094v-3.93a6.878,6.878,0,0,0,3.94-1.116,4.915,4.915,0,0,0,2.1-2.586,16.744,16.744,0,0,0,.457-4.614V12.323Q191.6,5,184.881,5V1.069h15.84L226.4,30.415V12.849q0-7.859-6.462-7.859V1.06h16.833V4.99a5.993,5.993,0,0,0-3.3.99,4.978,4.978,0,0,0-2.088,2.531,13.821,13.821,0,0,0-.559,4.472V49.8H226.4Z" transform="translate(-39.66 -0.023)"/>
  <path id="パス_229" data-name="パス 229" d="M277.657,30.553V26.663H299.6v3.891q-2.624.464-3.42,1.572t-.788,4.614V46.792q-1.111-.071-1.8-.071a62.526,62.526,0,0,0-11.585,1.8,47.4,47.4,0,0,1-9.78,1.273q-10.686,0-17.283-7.3a24.582,24.582,0,0,1-6.6-17.033,25.46,25.46,0,0,1,6.967-17.944A22.59,22.59,0,0,1,272.573,0a21.927,21.927,0,0,1,14.761,5.5A14.841,14.841,0,0,0,288.682.5h3.7l.417,16.8h-3.742Q285.467,5.024,275.127,5.024a10.744,10.744,0,0,0-9.386,4.63q-3.239,4.63-3.231,15.563a53.711,53.711,0,0,0,.953,11.672,10.145,10.145,0,0,0,10.7,8.379,11.174,11.174,0,0,0,6.361-1.7q2.514-1.7,2.522-6.681V35.12q0-4.205-5.393-4.567Z" transform="translate(-53.272 0.2)"/>
  <path id="パス_230" data-name="パス 230" d="M332.451,26.111V37.955a16.059,16.059,0,0,0,.378,4.433,3.355,3.355,0,0,0,2.041,1.737,14.024,14.024,0,0,0,5.052.692q4.587,0,6.754-1.171a10.456,10.456,0,0,0,3.877-4.118,22.245,22.245,0,0,0,2.467-6.287h3.869l-.307,15.718H313.71V45.028h.866c2.325,0,3.846-.448,4.547-1.328s1.056-2.358,1.056-4.542V10.8q0-3.285-1.088-4.574c-.733-.864-2.23-1.3-4.516-1.3h-.866V1.08h39.932l.694,12.409h-3.87a21.191,21.191,0,0,0-2.317-5.179,6.486,6.486,0,0,0-2.577-2.476,12.428,12.428,0,0,0-4.374-.55h-8.748V21.836h4.342q3.1,0,4.13-1.2t1.16-4.715h3.94V32.187h-3.94v-.676a8.132,8.132,0,0,0-.843-3.709c-.567-1.108-2.01-1.667-4.342-1.667Z" transform="translate(-67.28 -0.027)"/>
  <path id="パス_231" data-name="パス 231" d="M83.126,107.34v11.42q0,3.285,1.088,4.582c.725.857,2.246,1.289,4.547,1.289h1.072v3.93H64.425v-3.93h.788c2.364,0,3.846-.44,4.547-1.328s1.056-2.4,1.056-4.543V90.4q0-3.293-1.088-4.574t-4.516-1.3h-1.1v-3.93l19.017-.424q7.093,0,11.033.393a18.659,18.659,0,0,1,7.14,2.154,12.074,12.074,0,0,1,4.894,4.716,12.791,12.791,0,0,1,1.639,6.382,11.989,11.989,0,0,1-2.853,8.048,13.465,13.465,0,0,1-7.093,4.417,47.315,47.315,0,0,1-11.254,1.085Zm0-4.243h2.286q5.517,0,7.321-2.46a10.667,10.667,0,0,0,1.836-6.563,11.622,11.622,0,0,0-1.348-5.957,6.356,6.356,0,0,0-3.42-2.971,23.364,23.364,0,0,0-6.675-.684Z" transform="translate(247 -79.744)"/>
  <path id="パス_232" data-name="パス 232" d="M119.263,115.5l-.9,2.358a11.819,11.819,0,0,0-.969,3.537,2.583,2.583,0,0,0,1.143,2.421,7.576,7.576,0,0,0,3.736.692v3.93H106.78v-3.93q4.437,0,7.44-7.71L128.634,79.63h4.043l14.69,37.128q2.187,5.517,3.94,6.634a6.316,6.316,0,0,0,3.381,1.116v3.93H131.431v-3.93c2.1,0,3.4-.2,3.94-.621a1.94,1.94,0,0,0,.788-1.572,5.757,5.757,0,0,0-.623-2.232l-.449-1.092-1.348-3.5Zm1.489-4.07h11.372l-5.84-14.32Z" transform="translate(237.838 -79.63)"/>
  <path id="パス_233" data-name="パス 233" d="M186.26,107.511V118.86c0,2.193.363,3.717,1.1,4.582s2.246,1.289,4.532,1.289h.828v3.93H167.449v-3.93h.938q3.523,0,4.579-1.328t1.056-4.543V90.5q0-3.293-1.111-4.574c-.733-.864-2.246-1.3-4.524-1.3h-.938v-3.93H186.26l4.216-.039a69.844,69.844,0,0,1,9.142.424,16.026,16.026,0,0,1,5.69,2.035,11.888,11.888,0,0,1,5.982,10.414q0,8.559-9.457,11.7,2.514,1.627,7.88,10.217,4.145,6.617,5.911,7.977a6.213,6.213,0,0,0,3.869,1.36v3.93H204.836q-1.994-2.436-7.432-12.378a62.316,62.316,0,0,0-3.838-6.468,5.088,5.088,0,0,0-2.262-1.855,19.455,19.455,0,0,0-5.044-.5Zm0-4.315q5.84.071,7.88-.731a6.3,6.3,0,0,0,3.215-2.861A11.385,11.385,0,0,0,198.53,94q0-5.061-2.364-7t-8.039-1.941h-1.9Z" transform="translate(224.63 -79.844)"/>
  <path id="パス_234" data-name="パス 234" d="M251.786,109.718v9.156c0,2.216.37,3.749,1.1,4.6s2.293,1.273,4.729,1.273v3.93H233.179v-3.93h.725q3.523,0,4.579-1.328c.709-.88,1.056-2.4,1.056-4.543V90.51q0-3.293-1.088-4.574t-4.547-1.3h-.725V80.71h25v3.93h-.788c-2.325,0-3.846.448-4.547,1.328s-1.056,2.4-1.056,4.543v13.361l12.688-11.93c2.214-2.067,3.326-3.772,3.326-5.093,0-1.454-1.4-2.193-4.185-2.193V80.726h20.742v3.929a13.925,13.925,0,0,0-5.95,1.485q-3.1,1.5-8.811,6.9l-4.255,4.032,12.893,19.585c2.167,3.309,3.94,5.5,5.375,6.531a9.389,9.389,0,0,0,5.69,1.572v3.93H262.37v-3.93c3.5,0,5.256-.723,5.256-2.161q0-.919-2.144-4.1l-8.921-13.29Z" transform="translate(210.7 -79.859)"/>
</svg>
