<svg xmlns="http://www.w3.org/2000/svg" width="150" height="15" viewBox="0 0 150 15">
  <g id="text_yoko" data-name="text yoko" transform="translate(0 0)">
    <path id="パス_225" data-name="パス 225" d="M0,7.4A7.521,7.521,0,0,1,1.059,3.615,6.619,6.619,0,0,1,3.931.884,8.716,8.716,0,0,1,7.816,0a7.721,7.721,0,0,1,5.831,2.191,7.446,7.446,0,0,1,2.115,5.374,7.206,7.206,0,0,1-2.11,5.2,7.608,7.608,0,0,1-5.734,2.174,8.81,8.81,0,0,1-4.391-1.071A6.175,6.175,0,0,1,.81,10.983,8.711,8.711,0,0,1,0,7.4Zm4.344-.116a9.869,9.869,0,0,0,.867,4.789,2.844,2.844,0,0,0,2.606,1.471A3.066,3.066,0,0,0,10.528,12.2q.914-1.344.912-4.7a9.648,9.648,0,0,0-.857-4.593A2.883,2.883,0,0,0,7.854,1.387,2.9,2.9,0,0,0,5.215,2.8,8.806,8.806,0,0,0,4.344,7.286Z" transform="translate(0 0.063)"/>
    <path id="パス_226" data-name="パス 226" d="M69.281,9.048v3.407a2.145,2.145,0,0,0,.332,1.372,1.78,1.78,0,0,0,1.362.389h.237v1.179H63.63V14.216h.279a1.744,1.744,0,0,0,1.376-.4,2.207,2.207,0,0,0,.317-1.363V3.946a2.145,2.145,0,0,0-.332-1.372,1.791,1.791,0,0,0-1.362-.389H63.63V1.006L69.281.99h1.267a21.026,21.026,0,0,1,2.747.127,4.822,4.822,0,0,1,1.71.61,3.516,3.516,0,0,1,1.324,1.321,3.552,3.552,0,0,1,.474,1.8q0,2.567-2.842,3.51a11.487,11.487,0,0,1,2.368,3.065,11.222,11.222,0,0,0,1.776,2.391,1.857,1.857,0,0,0,1.163.41v1.179H74.849a31.41,31.41,0,0,1-2.233-3.713,18.417,18.417,0,0,0-1.153-1.94,1.528,1.528,0,0,0-.68-.556,5.821,5.821,0,0,0-1.5-.149Zm0-1.292a7.358,7.358,0,0,0,2.368-.219,1.87,1.87,0,0,0,.966-.858A3.415,3.415,0,0,0,72.968,5a2.6,2.6,0,0,0-.711-2.1,3.829,3.829,0,0,0-2.406-.585h-.571Z" transform="translate(-48.56 -0.692)"/>
    <path id="パス_227" data-name="パス 227" d="M131.159,10.756l-.27.707a3.541,3.541,0,0,0-.291,1.061.782.782,0,0,0,.343.726,2.292,2.292,0,0,0,1.123.208v1.179H127.41V13.458q1.329,0,2.233-2.313L133.975,0h1.215l4.417,11.138a4.516,4.516,0,0,0,1.184,1.99,1.922,1.922,0,0,0,1.018.335v1.179h-6.994V13.463A2.315,2.315,0,0,0,136,13.277a.586.586,0,0,0,.237-.472,1.769,1.769,0,0,0-.187-.67l-.135-.328-.405-1.052Zm.448-1.219h3.417l-1.755-4.3Z" transform="translate(-97.391 0.061)"/>
    <path id="パス_228" data-name="パス 228" d="M188.225,5.16v6.6q0,1.591.566,2.047a2.235,2.235,0,0,0,1.449.457v1.179h-5.3V14.266a2.07,2.07,0,0,0,1.184-.335,1.475,1.475,0,0,0,.632-.776,5.016,5.016,0,0,0,.137-1.384V4.439q0-2.2-2.018-2.2V1.063h4.76l7.718,8.8V4.6q0-2.358-1.942-2.358V1.06h5.059V2.239a1.8,1.8,0,0,0-.992.3,1.494,1.494,0,0,0-.628.759,4.138,4.138,0,0,0-.168,1.342V15.683H197.36Z" transform="translate(-141.324 -0.748)"/>
    <path id="パス_229" data-name="パス 229" d="M257.153,9.165V8h6.6V9.165a1.58,1.58,0,0,0-1.028.472,2.638,2.638,0,0,0-.237,1.384v3.016q-.334-.021-.54-.021a18.821,18.821,0,0,0-3.482.54,14.269,14.269,0,0,1-2.939.382,6.673,6.673,0,0,1-5.194-2.191,7.367,7.367,0,0,1-1.985-5.11,7.631,7.631,0,0,1,2.094-5.383A6.794,6.794,0,0,1,255.625,0a6.6,6.6,0,0,1,4.436,1.651,4.446,4.446,0,0,0,.405-1.5h1.111l.125,5.039h-1.125q-1.078-3.681-4.185-3.681a3.231,3.231,0,0,0-2.821,1.389,8.4,8.4,0,0,0-.971,4.669,16.086,16.086,0,0,0,.287,3.5,3.048,3.048,0,0,0,3.216,2.514,3.362,3.362,0,0,0,1.912-.509,2.267,2.267,0,0,0,.758-2v-.531Q258.773,9.273,257.153,9.165Z" transform="translate(-189.834 0.061)"/>
    <path id="パス_230" data-name="パス 230" d="M319.342,8.589v3.553a4.81,4.81,0,0,0,.114,1.33,1.008,1.008,0,0,0,.613.521,4.222,4.222,0,0,0,1.518.208,4.46,4.46,0,0,0,2.03-.351,3.139,3.139,0,0,0,1.165-1.235,6.665,6.665,0,0,0,.741-1.886h1.163l-.092,4.715H313.71V14.263h.26a1.736,1.736,0,0,0,1.367-.4,2.207,2.207,0,0,0,.317-1.363V4a2.169,2.169,0,0,0-.327-1.372,1.764,1.764,0,0,0-1.357-.389h-.26V1.08h12l.208,3.723h-1.163a6.35,6.35,0,0,0-.7-1.554,1.948,1.948,0,0,0-.774-.743,3.741,3.741,0,0,0-1.314-.165h-2.629V7.306h1.3a1.614,1.614,0,0,0,1.241-.361,2.442,2.442,0,0,0,.349-1.415h1.184v4.88h-1.184v-.2a2.436,2.436,0,0,0-.253-1.113c-.171-.332-.6-.5-1.3-.5Z" transform="translate(-239.793 -0.764)"/>
    <path id="パス_231" data-name="パス 231" d="M69.825,88.32v3.426a2.18,2.18,0,0,0,.327,1.375,1.789,1.789,0,0,0,1.367.387h.322v1.179H64.2V93.507h.237c.711,0,1.156-.132,1.367-.4a2.236,2.236,0,0,0,.317-1.363V83.237a2.163,2.163,0,0,0-.327-1.372,1.786,1.786,0,0,0-1.357-.389H64.11V80.3l5.715-.127q2.132,0,3.316.118a5.615,5.615,0,0,1,2.146.646,3.626,3.626,0,0,1,1.471,1.415,3.832,3.832,0,0,1,.493,1.914,3.593,3.593,0,0,1-.857,2.414A4.048,4.048,0,0,1,74.261,88a14.244,14.244,0,0,1-3.382.325Zm0-1.273h.687a2.613,2.613,0,0,0,2.2-.738,3.2,3.2,0,0,0,.552-1.969,3.481,3.481,0,0,0-.405-1.787,1.909,1.909,0,0,0-1.028-.891,7.034,7.034,0,0,0-2.006-.205Z" transform="translate(29.207 -80.042)"/>
    <path id="パス_232" data-name="パス 232" d="M110.531,90.391l-.27.707a3.541,3.541,0,0,0-.291,1.061.774.774,0,0,0,.343.726,2.28,2.28,0,0,0,1.123.207v1.179H106.78V93.093q1.333,0,2.236-2.313l4.332-11.15h1.215l4.415,11.138a4.52,4.52,0,0,0,1.184,1.99,1.9,1.9,0,0,0,1.016.335v1.179h-6.989V93.093a2.3,2.3,0,0,0,1.184-.186.582.582,0,0,0,.237-.472,1.725,1.725,0,0,0-.187-.67l-.135-.328-.405-1.049Zm.448-1.221H114.4l-1.755-4.3Z" transform="translate(-3.414 -79.63)"/>
    <path id="パス_233" data-name="パス 233" d="M173.1,88.7v3.4a2.145,2.145,0,0,0,.332,1.374,1.781,1.781,0,0,0,1.362.387h.249v1.179h-7.6V93.868h.282a1.746,1.746,0,0,0,1.376-.4,2.23,2.23,0,0,0,.317-1.363V83.6a2.128,2.128,0,0,0-.334-1.372,1.774,1.774,0,0,0-1.359-.389h-.282V80.658H173.1l1.267-.012a21.029,21.029,0,0,1,2.747.127,4.822,4.822,0,0,1,1.71.61,3.565,3.565,0,0,1,1.8,3.124q0,2.567-2.842,3.51a11.623,11.623,0,0,1,2.368,3.065,11.216,11.216,0,0,0,1.776,2.393,1.869,1.869,0,0,0,1.163.408v1.179h-4.4a31.58,31.58,0,0,1-2.233-3.713,18.686,18.686,0,0,0-1.153-1.94,1.529,1.529,0,0,0-.68-.556A5.857,5.857,0,0,0,173.1,88.7Zm0-1.294a7.359,7.359,0,0,0,2.368-.219,1.892,1.892,0,0,0,.966-.858,3.41,3.41,0,0,0,.353-1.681,2.6,2.6,0,0,0-.711-2.1,3.861,3.861,0,0,0-2.416-.582h-.571Z" transform="translate(-49.882 -80.403)"/>
    <path id="パス_234" data-name="パス 234" d="M238.771,89.412v2.747a2.169,2.169,0,0,0,.329,1.379,1.889,1.889,0,0,0,1.421.382V95.1h-7.342V93.92h.218a1.746,1.746,0,0,0,1.376-.4,2.214,2.214,0,0,0,.317-1.363V83.65a2.163,2.163,0,0,0-.327-1.372,1.8,1.8,0,0,0-1.367-.389h-.218V80.71h7.512v1.179h-.237a1.736,1.736,0,0,0-1.367.4,2.235,2.235,0,0,0-.317,1.363v4.008l3.813-3.579c.665-.62,1-1.132,1-1.528,0-.436-.422-.658-1.258-.658V80.715h6.233v1.179a4.191,4.191,0,0,0-1.788.446,12.4,12.4,0,0,0-2.648,2.07l-1.279,1.209,3.875,5.875a7.849,7.849,0,0,0,1.615,1.959,2.825,2.825,0,0,0,1.71.471V95.1h-8.093V93.924c1.052,0,1.58-.217,1.58-.648a3.415,3.415,0,0,0-.644-1.231l-2.681-3.987Z" transform="translate(-100.044 -80.454)"/>
  </g>
</svg>
