<svg xmlns="http://www.w3.org/2000/svg" width="20" height="16.243" viewBox="0 0 20 16.243">
  <g id="twitter-black-shape" transform="translate(0.001 -42.259)">
    <path id="パス_235" data-name="パス 235" d="M20,44.188a8.179,8.179,0,0,1-2.36.635,3.98,3.98,0,0,0,1.8-2.259,8.046,8.046,0,0,1-2.6.99,4.109,4.109,0,0,0-5.895-.1,3.95,3.95,0,0,0-1.2,2.9,4.549,4.549,0,0,0,.1.939,11.422,11.422,0,0,1-4.715-1.263,11.621,11.621,0,0,1-3.737-3.027,4.108,4.108,0,0,0-.063,4.023A4.1,4.1,0,0,0,2.664,48.49a4.066,4.066,0,0,1-1.853-.52v.051a3.961,3.961,0,0,0,.933,2.608A4.033,4.033,0,0,0,4.1,52.043a4.247,4.247,0,0,1-1.079.139,5.229,5.229,0,0,1-.774-.063,4.108,4.108,0,0,0,3.832,2.843A8.026,8.026,0,0,1,.989,56.713,8.726,8.726,0,0,1,0,56.662,11.384,11.384,0,0,0,6.293,58.5a11.976,11.976,0,0,0,4.1-.691,10.418,10.418,0,0,0,3.274-1.853,12.4,12.4,0,0,0,2.341-2.671,11.912,11.912,0,0,0,1.466-3.153,11.65,11.65,0,0,0,.482-3.293q0-.355-.013-.533A8.584,8.584,0,0,0,20,44.188Z" fill="#238b45"/>
  </g>
</svg>
